<svg xmlns="http://www.w3.org/2000/svg" xmlns:xlink="http://www.w3.org/1999/xlink" width="1080" zoomAndPan="magnify" viewBox="0 0 810 1012.49997" height="1350" preserveAspectRatio="xMidYMid meet" version="1.0"><defs><clipPath id="946a76de54"><path d="M 0.199219 0 L 809.800781 0 L 809.800781 1012 L 0.199219 1012 Z M 0.199219 0 " clip-rule="nonzero"/></clipPath></defs><g clip-path="url(#946a76de54)"><path fill="#ffffff" d="M 0.199219 0 L 809.800781 0 L 809.800781 1012 L 0.199219 1012 Z M 0.199219 0 " fill-opacity="1" fill-rule="nonzero"/><path fill="#ffffff" d="M 0.199219 0 L 809.800781 0 L 809.800781 1012 L 0.199219 1012 Z M 0.199219 0 " fill-opacity="1" fill-rule="nonzero"/></g><path fill="#039834" d="M 759.316406 475.113281 C 724.5625 444.917969 638.402344 435.820312 560.117188 434 C 634.527344 423.074219 712.691406 404.480469 742.332031 372.136719 C 782.484375 328.320312 779.527344 260.242188 735.722656 220.078125 C 706.203125 193.011719 665.675781 185.558594 630.09375 196.964844 C 638.363281 160.515625 627.425781 120.777344 597.90625 93.710938 C 554.101562 53.550781 486.027344 56.496094 445.886719 100.328125 C 414.386719 134.714844 403.324219 221.535156 399.660156 300.152344 C 395.992188 221.535156 384.925781 134.714844 353.429688 100.328125 C 313.28125 56.496094 245.210938 53.550781 201.402344 93.710938 C 171.882812 120.78125 160.945312 160.515625 169.214844 196.964844 C 133.628906 185.558594 93.105469 193.011719 63.585938 220.078125 C 19.777344 260.242188 16.820312 328.320312 56.972656 372.132812 C 86.816406 404.703125 165.875 423.332031 240.753906 434.226562 C 164.898438 436.523438 83.800781 446.039062 50.347656 475.109375 C 5.484375 514.09375 0.714844 582.066406 39.6875 626.941406 C 65.949219 657.175781 105.367188 669.175781 142.019531 661.878906 C 129.671875 697.15625 136.039062 737.878906 162.296875 768.113281 C 201.269531 812.988281 269.242188 817.773438 314.089844 778.777344 C 348.449219 748.90625 369.121094 667.15625 381.765625 590.992188 C 380.179688 627.433594 380.859375 664.28125 385.296875 701.1875 C 389.988281 740.058594 398.890625 779.089844 414.105469 816.441406 C 429.238281 853.746094 451.003906 889.152344 478.832031 919.34375 L 479.015625 919.546875 C 479.269531 919.816406 479.527344 920.085938 479.792969 920.347656 C 490.875 931.375 530.796875 891.222656 519.714844 880.199219 C 495.589844 856.199219 476.054688 827.5625 461.574219 795.957031 C 447.050781 764.351562 437.464844 729.976562 431.636719 694.617188 C 425.796875 659.222656 423.644531 622.828125 423.902344 586.246094 C 423.945312 580.085938 424.082031 573.917969 424.257812 567.746094 C 436.441406 649.804688 457.6875 745.832031 495.578125 778.777344 C 540.425781 817.773438 608.398438 812.988281 647.371094 768.113281 C 673.632812 737.878906 680 697.15625 667.652344 661.878906 C 704.300781 669.171875 743.722656 657.175781 769.984375 626.941406 C 808.953125 582.074219 804.175781 514.097656 759.316406 475.113281 Z M 759.316406 475.113281 " fill-opacity="1" fill-rule="nonzero"/></svg>